<mxfile host="app.diagrams.net" modified="2024-04-08T11:46:06.743Z" agent="Mozilla/5.0 (Windows NT 10.0; Win64; x64) AppleWebKit/537.36 (KHTML, like Gecko) Chrome/123.0.0.0 Safari/537.36" etag="aXJzjQ8qi75HZK8SNbck" version="24.2.2" type="github">
  <diagram name="Page-1" id="QhATbP6DpcFWqsjCHQCg">
    <mxGraphModel dx="1050" dy="522" grid="1" gridSize="10" guides="1" tooltips="1" connect="1" arrows="1" fold="1" page="1" pageScale="1" pageWidth="850" pageHeight="1100" math="0" shadow="0">
      <root>
        <mxCell id="0" />
        <mxCell id="1" parent="0" />
        <mxCell id="-FZpWcOJbV_yvdeyo6DN-1" value="AWS Cloud" style="sketch=0;outlineConnect=0;gradientColor=none;html=1;whiteSpace=wrap;fontSize=12;fontStyle=0;shape=mxgraph.aws4.group;grIcon=mxgraph.aws4.group_aws_cloud;strokeColor=#AAB7B8;fillColor=none;verticalAlign=top;align=left;spacingLeft=30;fontColor=#AAB7B8;dashed=0;" parent="1" vertex="1">
          <mxGeometry x="260" y="170" width="540" height="600" as="geometry" />
        </mxCell>
        <mxCell id="7JiP0di5giKkSwSKC_xB-7" value="" style="rounded=1;arcSize=10;dashed=0;fillColor=none;gradientColor=none;strokeWidth=2;" parent="1" vertex="1">
          <mxGeometry x="290" y="330" width="480" height="390" as="geometry" />
        </mxCell>
        <mxCell id="7JiP0di5giKkSwSKC_xB-5" value="" style="rounded=1;arcSize=10;dashed=0;fillColor=none;gradientColor=none;strokeWidth=2;" parent="1" vertex="1">
          <mxGeometry x="567" y="509.5" width="150" height="141" as="geometry" />
        </mxCell>
        <mxCell id="7JiP0di5giKkSwSKC_xB-2" value="" style="rounded=1;arcSize=10;dashed=0;fillColor=none;gradientColor=none;strokeWidth=2;" parent="1" vertex="1">
          <mxGeometry x="340" y="509.5" width="150" height="141" as="geometry" />
        </mxCell>
        <mxCell id="-FZpWcOJbV_yvdeyo6DN-3" value="" style="dashed=0;outlineConnect=0;html=1;align=center;labelPosition=center;verticalLabelPosition=bottom;verticalAlign=top;shape=mxgraph.webicons.wordpress_2;fillColor=#35E2EE;gradientColor=#0E4D99" parent="1" vertex="1">
          <mxGeometry x="365" y="560.5" width="70" height="69" as="geometry" />
        </mxCell>
        <mxCell id="7JiP0di5giKkSwSKC_xB-4" value="" style="image;sketch=0;aspect=fixed;html=1;points=[];align=center;fontSize=12;image=img/lib/mscae/Docker.svg;" parent="1" vertex="1">
          <mxGeometry x="440" y="519.5" width="47.8" height="39.2" as="geometry" />
        </mxCell>
        <mxCell id="-FZpWcOJbV_yvdeyo6DN-4" value="" style="sketch=0;outlineConnect=0;fontColor=#232F3E;gradientColor=none;fillColor=#C925D1;strokeColor=none;dashed=0;verticalLabelPosition=bottom;verticalAlign=top;align=center;html=1;fontSize=12;fontStyle=0;aspect=fixed;pointerEvents=1;shape=mxgraph.aws4.rds_mysql_instance;" parent="1" vertex="1">
          <mxGeometry x="590" y="570.5" width="64" height="64" as="geometry" />
        </mxCell>
        <mxCell id="7JiP0di5giKkSwSKC_xB-6" value="" style="image;sketch=0;aspect=fixed;html=1;points=[];align=center;fontSize=12;image=img/lib/mscae/Docker.svg;" parent="1" vertex="1">
          <mxGeometry x="669.2" y="519.5" width="47.8" height="39.2" as="geometry" />
        </mxCell>
        <mxCell id="7JiP0di5giKkSwSKC_xB-8" value="" style="dashed=0;html=1;shape=mxgraph.aws3.instance;fillColor=#F58536;gradientColor=none;dashed=0;" parent="1" vertex="1">
          <mxGeometry x="300" y="320" width="40" height="41" as="geometry" />
        </mxCell>
        <mxCell id="7JiP0di5giKkSwSKC_xB-9" value="EC2 instance" style="text;whiteSpace=wrap;html=1;" parent="1" vertex="1">
          <mxGeometry x="350" y="340" width="100" height="40" as="geometry" />
        </mxCell>
        <mxCell id="7JiP0di5giKkSwSKC_xB-12" style="edgeStyle=orthogonalEdgeStyle;rounded=0;orthogonalLoop=1;jettySize=auto;html=1;entryX=0.25;entryY=0;entryDx=0;entryDy=0;" parent="1" source="7JiP0di5giKkSwSKC_xB-10" target="7JiP0di5giKkSwSKC_xB-7" edge="1">
          <mxGeometry relative="1" as="geometry" />
        </mxCell>
        <mxCell id="7JiP0di5giKkSwSKC_xB-10" value="" style="strokeColor=#dddddd;shadow=1;strokeWidth=1;rounded=1;absoluteArcSize=1;arcSize=2;" parent="1" vertex="1">
          <mxGeometry x="300" y="230" width="220" height="60" as="geometry" />
        </mxCell>
        <mxCell id="7JiP0di5giKkSwSKC_xB-11" value="Elastic IP Address" style="editableCssRules=.*;html=1;fontColor=#999999;shape=image;verticalLabelPosition=middle;verticalAlign=middle;labelPosition=right;align=left;spacingLeft=20;part=1;points=[];imageAspect=0;image=data:image/svg+xml,PHN2ZyB4bWxucz0iaHR0cDovL3d3dy53My5vcmcvMjAwMC9zdmciIHhtbG5zOnY9Imh0dHBzOi8vdmVjdGEuaW8vbmFubyIgd2lkdGg9IjE5Ljk5OTk5ODA5MjY1MTM2NyIgaGVpZ2h0PSIyMCIgdmlld0JveD0iMCAtMi44NDIxNzA1NjE4NzU1NzQ1ZS0xNSAxOS45OTk5OTgwOTI2NTEzNjcgMjAiPiYjeGE7CTxzdHlsZSB0eXBlPSJ0ZXh0L2NzcyI+JiN4YTsJLnN0MHtmaWxsOiM0Mjg1ZjQ7fSYjeGE7CS5zdDF7ZmlsbDojNjY5ZGY2O30mI3hhOwk8L3N0eWxlPiYjeGE7CTxwYXRoIGNsYXNzPSJzdDEiIGQ9Ik0xNS40OSAxMC40djYuN2EuNC40IDAgMCAxLS40LjRIMi45YS40LjQgMCAwIDEtLjQtLjRWNC45YS40LjQgMCAwIDEgLjQtLjRoNi43YS40LjQgMCAwIDAgLjQtLjRWMi40YS40LjQgMCAwIDAtLjQtLjRILjRhLjQuNCAwIDAgMC0uNC40djE3LjJhLjQuNCAwIDAgMCAuNC40aDE3LjJhLjQuNCAwIDAgMCAuNC0uNHYtOS4yYS40LjQgMCAwIDAtLjQtLjRoLTEuNzFhLjQuNCAwIDAgMC0uNC40eiIvPiYjeGE7CTxwYXRoIGNsYXNzPSJzdDAiIGQ9Ik0xMiAuNHY3LjJhLjQuNCAwIDAgMCAuNC40aDcuMmEuNC40IDAgMCAwIC40LS40Vi40YS40LjQgMCAwIDAtLjQtLjRoLTcuMmEuNC40IDAgMCAwLS40LjR6bTUuNiA0LjFoLTEuNzFhLjQuNCAwIDAgMS0uNC0uNFYyLjRhLjQuNCAwIDAgMSAuNC0uNGgxLjcxYS40LjQgMCAwIDEgLjQuNHYxLjdhLjQuNCAwIDAgMS0uNC40eiIvPiYjeGE7PC9zdmc+;" parent="7JiP0di5giKkSwSKC_xB-10" vertex="1">
          <mxGeometry width="30" height="30" relative="1" as="geometry">
            <mxPoint x="15" y="15" as="offset" />
          </mxGeometry>
        </mxCell>
        <mxCell id="7JiP0di5giKkSwSKC_xB-14" style="edgeStyle=orthogonalEdgeStyle;rounded=0;orthogonalLoop=1;jettySize=auto;html=1;endArrow=doubleBlock;endFill=1;startArrow=doubleBlock;startFill=1;" parent="1" source="7JiP0di5giKkSwSKC_xB-13" target="7JiP0di5giKkSwSKC_xB-2" edge="1">
          <mxGeometry relative="1" as="geometry" />
        </mxCell>
        <mxCell id="7JiP0di5giKkSwSKC_xB-15" style="edgeStyle=orthogonalEdgeStyle;rounded=0;orthogonalLoop=1;jettySize=auto;html=1;endArrow=doubleBlock;endFill=1;startArrow=doubleBlock;startFill=1;" parent="1" source="7JiP0di5giKkSwSKC_xB-13" target="7JiP0di5giKkSwSKC_xB-5" edge="1">
          <mxGeometry relative="1" as="geometry" />
        </mxCell>
        <mxCell id="7JiP0di5giKkSwSKC_xB-13" value="" style="shape=image;html=1;verticalAlign=top;verticalLabelPosition=bottom;labelBackgroundColor=#ffffff;imageAspect=0;aspect=fixed;image=https://cdn1.iconfinder.com/data/icons/social-media-2106/24/social_media_social_media_logo_docker-128.png" parent="1" vertex="1">
          <mxGeometry x="500" y="400" width="48" height="48" as="geometry" />
        </mxCell>
        <mxCell id="7JiP0di5giKkSwSKC_xB-16" value="docker-compose" style="text;strokeColor=none;align=center;fillColor=none;html=1;verticalAlign=middle;whiteSpace=wrap;rounded=0;" parent="1" vertex="1">
          <mxGeometry x="488" y="448" width="92" height="30" as="geometry" />
        </mxCell>
        <mxCell id="7JiP0di5giKkSwSKC_xB-19" style="edgeStyle=orthogonalEdgeStyle;rounded=0;orthogonalLoop=1;jettySize=auto;html=1;entryX=0;entryY=0.5;entryDx=0;entryDy=0;" parent="1" source="7JiP0di5giKkSwSKC_xB-17" target="7JiP0di5giKkSwSKC_xB-10" edge="1">
          <mxGeometry relative="1" as="geometry" />
        </mxCell>
        <mxCell id="7JiP0di5giKkSwSKC_xB-17" value="" style="image;aspect=fixed;perimeter=ellipsePerimeter;html=1;align=center;shadow=0;dashed=0;spacingTop=3;image=img/lib/active_directory/user_accounts.svg;" parent="1" vertex="1">
          <mxGeometry x="70" y="424.2" width="80" height="77.6" as="geometry" />
        </mxCell>
        <mxCell id="7JiP0di5giKkSwSKC_xB-18" value="users" style="text;strokeColor=none;align=center;fillColor=none;html=1;verticalAlign=middle;whiteSpace=wrap;rounded=0;" parent="1" vertex="1">
          <mxGeometry x="58" y="509.5" width="92" height="30" as="geometry" />
        </mxCell>
        <mxCell id="7JiP0di5giKkSwSKC_xB-20" value="Container 1" style="text;strokeColor=none;align=center;fillColor=none;html=1;verticalAlign=middle;whiteSpace=wrap;rounded=0;" parent="1" vertex="1">
          <mxGeometry x="365" y="655" width="92" height="30" as="geometry" />
        </mxCell>
        <mxCell id="7JiP0di5giKkSwSKC_xB-21" value="Container 2" style="text;strokeColor=none;align=center;fillColor=none;html=1;verticalAlign=middle;whiteSpace=wrap;rounded=0;" parent="1" vertex="1">
          <mxGeometry x="596" y="660" width="92" height="30" as="geometry" />
        </mxCell>
        <mxCell id="7JiP0di5giKkSwSKC_xB-22" value="&lt;font style=&quot;font-size: 18px;&quot;&gt;Install Wordpress and mysql using docker-compose on aws ec2&lt;/font&gt;" style="text;strokeColor=none;align=center;fillColor=none;html=1;verticalAlign=middle;whiteSpace=wrap;rounded=0;" parent="1" vertex="1">
          <mxGeometry x="90" y="790" width="590" height="90" as="geometry" />
        </mxCell>
        <mxCell id="7JiP0di5giKkSwSKC_xB-23" value="&lt;font style=&quot;font-size: 18px;&quot;&gt;1. Spinup EC2 instance and add Elastic IP&lt;/font&gt;&lt;div&gt;&lt;font size=&quot;3&quot;&gt;2. Install Docker and test it&lt;/font&gt;&lt;/div&gt;&lt;div&gt;&lt;font size=&quot;3&quot;&gt;3. Install docker-compose&lt;/font&gt;&lt;/div&gt;&lt;div&gt;&lt;font size=&quot;3&quot;&gt;4. Write the docker-compose.yml and spinup&lt;/font&gt;&lt;/div&gt;&lt;div&gt;&lt;font size=&quot;3&quot;&gt;5. Setup Wordpress briefly&lt;/font&gt;&lt;/div&gt;" style="text;whiteSpace=wrap;html=1;" parent="1" vertex="1">
          <mxGeometry x="115" y="860" width="395" height="130" as="geometry" />
        </mxCell>
        <mxCell id="2NwWRLGc38m_cmQZ04Eg-1" value="&lt;font style=&quot;font-size: 18px;&quot;&gt;Install Wordpress and mysql using docker-compose on aws ec2&lt;/font&gt;" style="text;strokeColor=none;align=center;fillColor=none;html=1;verticalAlign=middle;whiteSpace=wrap;rounded=0;" parent="1" vertex="1">
          <mxGeometry x="130" y="20" width="590" height="90" as="geometry" />
        </mxCell>
      </root>
    </mxGraphModel>
  </diagram>
</mxfile>
